<svg version="1.1" xmlns="http://www.w3.org/2000/svg" xmlns:xlink="http://www.w3.org/1999/xlink" class="thumbnail-icon" fill="#47141E" viewBox="-0.0000019073486328125 0.1342029571533203 199.99998474121094 199.73159790039062"><g data-paper-data="{&quot;fillRule&quot;:&quot;evenodd&quot;,&quot;isIcon&quot;:&quot;true&quot;,&quot;iconType&quot;:&quot;icon&quot;,&quot;rawIconId&quot;:&quot;1933149&quot;,&quot;selectedEffects&quot;:{&quot;container&quot;:&quot;&quot;,&quot;transformation&quot;:&quot;&quot;,&quot;pattern&quot;:&quot;&quot;},&quot;isDetailed&quot;:false,&quot;bounds&quot;:{&quot;x&quot;:64.99999999999997,&quot;y&quot;:198.09889099468114,&quot;width&quot;:73.90139145650787,&quot;height&quot;:73.80221801063772},&quot;iconStyle&quot;:&quot;standalone&quot;}"><path d="M50.0716,37.73643l18.7893,-18.70109c27.43415,-27.787 74.9808,-24.3467 105.94346,6.43953c30.96266,30.78623 33.78546,78.33288 6.2631,105.85524l-18.70109,18.70109l-24.96419,-24.96419l19.14215,-18.52467c13.76118,-13.76118 10.93837,-38.9018 -6.2631,-56.10328c-17.20148,-17.20148 -42.34209,-20.02428 -56.10328,-6.2631l-19.14215,18.52467zM62.59781,75.13862l-18.70109,18.70109c-13.76118,13.76118 -11.46765,38.99001 6.17489,56.1915c17.64254,17.20148 42.43031,19.93607 56.1915,6.17489l18.52467,-18.87752l24.96419,24.96419l-18.70109,18.70109c-27.34594,27.52236 -74.89259,24.52313 -105.85524,-6.2631c-30.96266,-30.78623 -33.78546,-78.33288 -6.2631,-105.85524l18.70109,-18.70109zM62.57946,112.58491l49.90087,-49.90026l24.95008,24.95017l-49.90105,49.90105z" fill-rule="evenodd"></path></g></svg>
